<mxfile host="65bd71144e">
    <diagram id="Dcbxd2O61RJnGBtU6Lh9" name="Page-1">
        <mxGraphModel dx="1643" dy="302" grid="1" gridSize="10" guides="1" tooltips="1" connect="1" arrows="1" fold="1" page="1" pageScale="1" pageWidth="827" pageHeight="1169" math="0" shadow="0">
            <root>
                <mxCell id="0"/>
                <mxCell id="1" parent="0"/>
                <mxCell id="2" value="" style="ellipse;fillColor=strokeColor;" parent="1" vertex="1">
                    <mxGeometry x="60" y="100" width="30" height="30" as="geometry"/>
                </mxCell>
                <mxCell id="4" value="Cadrage" style="html=1;align=center;verticalAlign=top;rounded=1;absoluteArcSize=1;arcSize=10;dashed=0;" parent="1" vertex="1">
                    <mxGeometry x="5" y="200" width="140" height="40" as="geometry"/>
                </mxCell>
                <mxCell id="9" value="Conception" style="html=1;align=center;verticalAlign=top;rounded=1;absoluteArcSize=1;arcSize=10;dashed=0;" parent="1" vertex="1">
                    <mxGeometry x="380" y="200" width="140" height="40" as="geometry"/>
                </mxCell>
                <mxCell id="10" value="RÃ©alisation" style="html=1;align=center;verticalAlign=top;rounded=1;absoluteArcSize=1;arcSize=10;dashed=0;" parent="1" vertex="1">
                    <mxGeometry x="590" y="200" width="140" height="40" as="geometry"/>
                </mxCell>
                <mxCell id="11" value="Cloture" style="html=1;align=center;verticalAlign=top;rounded=1;absoluteArcSize=1;arcSize=10;dashed=0;" parent="1" vertex="1">
                    <mxGeometry x="590" y="310" width="140" height="40" as="geometry"/>
                </mxCell>
                <mxCell id="12" value="" style="ellipse;html=1;shape=endState;fillColor=strokeColor;" parent="1" vertex="1">
                    <mxGeometry x="645" y="430" width="30" height="30" as="geometry"/>
                </mxCell>
                <mxCell id="3" value="trigger[guard]/activity" style="edgeStyle=none;html=1;endArrow=open;endSize=12;strokeWidth=3;verticalAlign=bottom;exitX=0.5;exitY=1;exitDx=0;exitDy=0;fontColor=none;noLabel=1;entryX=0.5;entryY=0;entryDx=0;entryDy=0;" parent="1" edge="1" target="4" source="2">
                    <mxGeometry x="-0.5" y="85" width="160" relative="1" as="geometry">
                        <mxPoint x="185" y="120" as="sourcePoint"/>
                        <mxPoint x="185" y="200" as="targetPoint"/>
                        <mxPoint as="offset"/>
                    </mxGeometry>
                </mxCell>
                <mxCell id="15" value="trigger[guard]/activity" style="edgeStyle=none;html=1;endArrow=open;endSize=12;strokeWidth=3;verticalAlign=bottom;exitX=1;exitY=0.5;exitDx=0;exitDy=0;fontColor=none;noLabel=1;entryX=0;entryY=0.5;entryDx=0;entryDy=0;" parent="1" source="9" target="10" edge="1">
                    <mxGeometry x="-0.5" y="85" width="160" relative="1" as="geometry">
                        <mxPoint x="195" y="130" as="sourcePoint"/>
                        <mxPoint x="195" y="210" as="targetPoint"/>
                        <mxPoint as="offset"/>
                    </mxGeometry>
                </mxCell>
                <mxCell id="16" value="trigger[guard]/activity" style="edgeStyle=none;html=1;endArrow=open;endSize=12;strokeWidth=3;verticalAlign=bottom;exitX=0.5;exitY=1;exitDx=0;exitDy=0;fontColor=none;noLabel=1;" parent="1" source="10" target="11" edge="1">
                    <mxGeometry x="-0.5" y="85" width="160" relative="1" as="geometry">
                        <mxPoint x="205" y="140" as="sourcePoint"/>
                        <mxPoint x="205" y="220" as="targetPoint"/>
                        <mxPoint as="offset"/>
                    </mxGeometry>
                </mxCell>
                <mxCell id="17" value="trigger[guard]/activity" style="edgeStyle=none;html=1;endArrow=open;endSize=12;strokeWidth=3;verticalAlign=bottom;exitX=0.5;exitY=1;exitDx=0;exitDy=0;fontColor=none;noLabel=1;entryX=0.5;entryY=0;entryDx=0;entryDy=0;" parent="1" source="11" target="12" edge="1">
                    <mxGeometry x="-0.5" y="85" width="160" relative="1" as="geometry">
                        <mxPoint x="215" y="150" as="sourcePoint"/>
                        <mxPoint x="215" y="230" as="targetPoint"/>
                        <mxPoint as="offset"/>
                    </mxGeometry>
                </mxCell>
                <mxCell id="18" value="" style="rhombus;whiteSpace=wrap;html=1;verticalAlign=top;rounded=1;arcSize=10;dashed=0;" vertex="1" parent="1">
                    <mxGeometry x="210" y="180" width="80" height="80" as="geometry"/>
                </mxCell>
                <mxCell id="21" value="[GO]" style="text;html=1;align=center;verticalAlign=middle;resizable=0;points=[];autosize=1;strokeColor=none;fillColor=none;" vertex="1" parent="1">
                    <mxGeometry x="300" y="190" width="50" height="30" as="geometry"/>
                </mxCell>
                <mxCell id="23" value="trigger[guard]/activity" style="edgeStyle=none;html=1;endArrow=open;endSize=12;strokeWidth=3;verticalAlign=bottom;exitX=1;exitY=0.5;exitDx=0;exitDy=0;fontColor=none;noLabel=1;" edge="1" parent="1" source="4">
                    <mxGeometry x="-0.5" y="85" width="160" relative="1" as="geometry">
                        <mxPoint x="530" y="230" as="sourcePoint"/>
                        <mxPoint x="210" y="220" as="targetPoint"/>
                        <mxPoint as="offset"/>
                    </mxGeometry>
                </mxCell>
                <mxCell id="24" value="trigger[guard]/activity" style="edgeStyle=none;html=1;endArrow=open;endSize=12;strokeWidth=3;verticalAlign=bottom;exitX=1;exitY=0.5;exitDx=0;exitDy=0;fontColor=none;noLabel=1;" edge="1" parent="1" source="18">
                    <mxGeometry x="-0.5" y="85" width="160" relative="1" as="geometry">
                        <mxPoint x="530" y="230" as="sourcePoint"/>
                        <mxPoint x="380" y="220" as="targetPoint"/>
                        <mxPoint as="offset"/>
                    </mxGeometry>
                </mxCell>
                <mxCell id="25" value="trigger[guard]/activity" style="edgeStyle=none;html=1;endArrow=open;endSize=12;strokeWidth=3;verticalAlign=bottom;exitX=0.5;exitY=1;exitDx=0;exitDy=0;fontColor=none;noLabel=1;entryX=0.5;entryY=0;entryDx=0;entryDy=0;" edge="1" parent="1" source="18" target="26">
                    <mxGeometry x="-0.5" y="85" width="160" relative="1" as="geometry">
                        <mxPoint x="300" y="230" as="sourcePoint"/>
                        <mxPoint x="250" y="320" as="targetPoint"/>
                        <mxPoint as="offset"/>
                    </mxGeometry>
                </mxCell>
                <mxCell id="26" value="" style="ellipse;html=1;shape=endState;fillColor=strokeColor;" vertex="1" parent="1">
                    <mxGeometry x="235" y="340" width="30" height="30" as="geometry"/>
                </mxCell>
                <mxCell id="27" value="[NO GO]" style="text;html=1;align=center;verticalAlign=middle;resizable=0;points=[];autosize=1;strokeColor=none;fillColor=none;" vertex="1" parent="1">
                    <mxGeometry x="255" y="280" width="70" height="30" as="geometry"/>
                </mxCell>
            </root>
        </mxGraphModel>
    </diagram>
</mxfile>